<?xml version="1.0" standalone="no"?>
<!DOCTYPE svg PUBLIC "-//W3C//DTD SVG 20010904//EN"
 "http://www.w3.org/TR/2001/REC-SVG-20010904/DTD/svg10.dtd">
<svg version="1.0" xmlns="http://www.w3.org/2000/svg"
 width="142.000000pt" height="142.000000pt" viewBox="0 0 142.000000 142.000000"
 preserveAspectRatio="xMidYMid meet">
<metadata>
Created by potrace 1.11, written by Peter Selinger 2001-2013
</metadata>
<g transform="translate(0.000000,142.000000) scale(0.100000,-0.100000)"
fill="#000000" stroke="none">
<path d="M630 1397 c-47 -4 -107 -15 -135 -23 -312 -102 -516 -422 -475 -748
28 -222 129 -388 310 -504 65 -43 119 -64 244 -97 122 -33 173 -32 303 6 160
46 234 87 329 183 140 141 194 265 201 468 5 115 3 135 -21 218 -43 152 -124
271 -246 365 -139 107 -308 151 -510 132z m205 -201 c80 -21 136 -50 189 -97
83 -74 130 -159 162 -291 l6 -28 -68 0 c-70 -1 -198 -21 -211 -34 -4 -4 0 -21
9 -39 44 -85 46 -166 7 -258 -26 -60 -23 -64 63 -74 32 -4 60 -11 63 -15 3 -5
-9 -22 -27 -39 -88 -82 -250 -130 -378 -112 -256 36 -414 228 -414 501 1 236
139 427 353 485 61 17 184 18 246 1z"/>
<path d="M470 1010 c-24 -24 -24 -29 -4 -58 17 -24 53 -29 72 -10 18 18 15 59
-5 74 -25 19 -40 17 -63 -6z"/>
<path d="M590 918 c-26 -28 -26 -62 2 -88 44 -40 108 -14 108 45 0 59 -69 87
-110 43z"/>
<path d="M462 768 c-31 -35 -35 -68 -13 -105 48 -76 156 -42 153 49 -2 69 -93
106 -140 56z"/>
<path d="M782 703 c-64 -31 -152 -108 -152 -133 0 -36 152 -150 201 -150 20 0
47 48 60 109 8 41 8 61 -5 105 -9 29 -24 63 -33 74 l-18 21 -53 -26z m-7 -108
c0 -38 -37 -48 -55 -15 -14 27 4 52 34 48 16 -2 21 -10 21 -33z"/>
</g>
</svg>
